<svg width="19" height="19" viewBox="0 0 19 19" fill="none" xmlns="http://www.w3.org/2000/svg">
<path d="M15.6021 1.58337H3.39781C2.39715 1.58337 1.58331 2.39721 1.58331 3.39787V15.6022C1.58331 16.6029 2.39715 17.4167 3.39781 17.4167H15.6021C16.6028 17.4167 17.4166 16.6029 17.4166 15.6022V3.39787C17.4166 2.39721 16.6028 1.58337 15.6021 1.58337ZM16.2291 15.6022C16.2291 15.9482 15.9481 16.2292 15.6021 16.2292H3.39781C3.05185 16.2292 2.77081 15.9482 2.77081 15.6022V5.08096C2.77081 4.735 3.05106 4.45554 3.39623 4.45396H15.6037C15.9489 4.45396 16.2291 4.735 16.2291 5.07937V15.6038V15.6022Z" fill="#5B7083"/>
<path d="M5.5671 7.94437C6.12893 7.94437 6.58439 7.48892 6.58439 6.92708C6.58439 6.36525 6.12893 5.90979 5.5671 5.90979C5.00526 5.90979 4.5498 6.36525 4.5498 6.92708C4.5498 7.48892 5.00526 7.94437 5.5671 7.94437Z" fill="#5B7083"/>
<path d="M5.5671 11.4324C6.12893 11.4324 6.58439 10.977 6.58439 10.4151C6.58439 9.85328 6.12893 9.39783 5.5671 9.39783C5.00526 9.39783 4.5498 9.85328 4.5498 10.4151C4.5498 10.977 5.00526 11.4324 5.5671 11.4324Z" fill="#5B7083"/>
<path d="M13.4331 7.94437C13.995 7.94437 14.4504 7.48892 14.4504 6.92708C14.4504 6.36525 13.995 5.90979 13.4331 5.90979C12.8713 5.90979 12.4158 6.36525 12.4158 6.92708C12.4158 7.48892 12.8713 7.94437 13.4331 7.94437Z" fill="#5B7083"/>
<path d="M13.4331 11.4324C13.995 11.4324 14.4504 10.977 14.4504 10.4151C14.4504 9.85328 13.995 9.39783 13.4331 9.39783C12.8713 9.39783 12.4158 9.85328 12.4158 10.4151C12.4158 10.977 12.8713 11.4324 13.4331 11.4324Z" fill="#5B7083"/>
<path d="M9.50014 7.94437C10.062 7.94437 10.5174 7.48892 10.5174 6.92708C10.5174 6.36525 10.062 5.90979 9.50014 5.90979C8.93831 5.90979 8.48285 6.36525 8.48285 6.92708C8.48285 7.48892 8.93831 7.94437 9.50014 7.94437Z" fill="#5B7083"/>
<path d="M9.50014 11.4324C10.062 11.4324 10.5174 10.977 10.5174 10.4151C10.5174 9.85328 10.062 9.39783 9.50014 9.39783C8.93831 9.39783 8.48285 9.85328 8.48285 10.4151C8.48285 10.977 8.93831 11.4324 9.50014 11.4324Z" fill="#5B7083"/>
<path d="M5.5671 14.8604C6.12893 14.8604 6.58439 14.4049 6.58439 13.8431C6.58439 13.2813 6.12893 12.8258 5.5671 12.8258C5.00526 12.8258 4.5498 13.2813 4.5498 13.8431C4.5498 14.4049 5.00526 14.8604 5.5671 14.8604Z" fill="#5B7083"/>
<path d="M9.50014 14.8604C10.062 14.8604 10.5174 14.4049 10.5174 13.8431C10.5174 13.2813 10.062 12.8258 9.50014 12.8258C8.93831 12.8258 8.48285 13.2813 8.48285 13.8431C8.48285 14.4049 8.93831 14.8604 9.50014 14.8604Z" fill="#5B7083"/>
</svg>
