<svg width="19" height="19" viewBox="0 0 19 19" fill="none" xmlns="http://www.w3.org/2000/svg">
<path d="M9.50012 11.3327C7.84712 11.3327 6.50208 9.98844 6.50208 8.33544C6.50208 6.68244 7.84791 5.33582 9.50012 5.33582C11.1523 5.33582 12.4982 6.68165 12.4982 8.33386C12.4982 9.98607 11.1523 11.3303 9.50012 11.3303V11.3327ZM9.50012 6.5249C8.50262 6.5249 7.68958 7.33715 7.68958 8.33544C7.68958 9.33373 8.50262 10.1444 9.50012 10.1444C10.4976 10.1444 11.3107 9.33294 11.3107 8.33465C11.3107 7.33636 10.4976 6.52332 9.50012 6.52332V6.5249Z" fill="#5B7083"/>
<path d="M16.3812 8.46296C16.3812 4.67087 13.2937 1.58337 9.50006 1.58337C5.7064 1.58337 2.6189 4.67087 2.6189 8.46296C2.6189 9.96871 3.09627 11.3985 3.99877 12.5978L4.00115 12.5962L4.00669 12.6081C5.29552 14.2469 8.97677 17.1657 9.13273 17.2885C9.24198 17.3755 9.37181 17.4175 9.50086 17.4175C9.6299 17.4175 9.75973 17.3755 9.86898 17.2893C10.0249 17.1665 13.7062 14.2492 14.995 12.6089L15.0006 12.5978L15.0021 12.5994C15.9046 11.3992 16.3812 9.97108 16.3812 8.46454V8.46296ZM9.50006 16.063C8.53106 15.2792 5.92173 13.1219 4.94323 11.879C4.19906 10.8894 3.8064 9.70825 3.8064 8.46533C3.8064 5.32558 6.3611 2.77087 9.50006 2.77087C12.639 2.77087 15.1937 5.32479 15.1937 8.46296C15.1937 9.70587 14.8003 10.887 14.0569 11.8774C13.0784 13.1203 10.4691 15.2768 9.50006 16.0614V16.063Z" fill="#5B7083"/>
</svg>
