<svg width="102" height="30" viewBox="0 0 102 30" fill="none" xmlns="http://www.w3.org/2000/svg">
<path d="M28.225 9.1875L15.5938 2.37125C15.2225 2.17125 14.7763 2.17125 14.4063 2.37125L1.78126 9.1875C1.17376 9.5175 0.947508 10.275 1.27501 10.8825C1.50001 11.3013 1.93126 11.5388 2.37501 11.5388C2.57501 11.5388 2.78001 11.4913 2.96876 11.3888L3.88626 10.8938L5.87376 24.9563C6.14376 26.4738 7.51126 27.5338 9.19876 27.5338H20.8013C22.4888 27.5338 23.8563 26.4738 24.1288 24.9238L26.1138 10.8925L27.035 11.39C27.6413 11.7188 28.4 11.4925 28.7275 10.885C29.0563 10.2775 28.8275 9.51875 28.2225 9.19125L28.225 9.1875ZM15 19.2938C12.7563 19.2938 10.9375 17.475 10.9375 15.2313C10.9375 12.9875 12.7563 11.1688 15 11.1688C17.2438 11.1688 19.0625 12.9875 19.0625 15.2313C19.0625 17.475 17.2438 19.2938 15 19.2938Z" fill="#1DA1F2"/>
<path d="M62.0234 22V9.33643H58.9526V14.3369H54.3047V9.33643H51.2339V22H54.3047V16.8232H58.9526V22H62.0234ZM68.6382 11.9062C65.6323 11.9062 63.9253 13.9194 63.9253 16.7026V17.3335C63.9253 20.3301 65.623 22.1855 68.6382 22.1855C71.644 22.1855 73.3418 20.3301 73.3418 17.3242V16.6841C73.3418 13.9009 71.644 11.9062 68.6382 11.9062ZM68.6382 14.1328C69.8721 14.1328 70.3267 15.2925 70.3267 16.6562V17.417C70.3267 18.7065 69.8999 19.959 68.6382 19.959C67.3672 19.959 66.9404 18.6973 66.9404 17.417V16.6562C66.9404 15.311 67.3857 14.1328 68.6382 14.1328ZM75.0859 22H78.0547V16.1553C78.0547 14.8657 78.7319 14.3647 79.5391 14.3647C80.3184 14.3647 81.0142 14.8008 81.0142 16.1646V22H83.853V16.1738C83.853 14.9678 84.4375 14.3647 85.3467 14.3647C86.1631 14.3647 86.8032 14.8564 86.8032 16.1089V22H89.7812V15.209C89.7812 13.27 88.6309 11.9434 86.6177 11.9434C84.9292 11.9434 83.9087 12.8804 83.6211 13.7061H83.5005C83.1851 12.667 82.2852 11.9434 80.7729 11.9434C79.1865 11.9434 78.3608 12.8896 78.1196 13.6411H77.9712V12.0918H75.0859V22ZM96.1919 22.1855C99.1328 22.1855 100.413 20.3857 100.562 18.8271H97.8618C97.7412 19.5601 97.0825 19.9961 96.2012 19.9961C95.1807 19.9961 94.4014 19.2446 94.4014 17.9829V17.6489H100.626V16.6562C100.626 13.7339 98.8452 11.9062 96.0806 11.9062C93.4736 11.9062 91.4976 13.5298 91.4976 16.6099V17.3984C91.4976 20.5527 93.4087 22.1855 96.1919 22.1855ZM94.4014 15.9419V15.9326C94.4014 14.8379 95.0879 14.0308 96.1084 14.0308C97.1196 14.0308 97.7783 14.8379 97.7783 15.9326V15.9419H94.4014Z" fill="#1DA1F2"/>
</svg>
