<svg width="102" height="30" viewBox="0 0 102 30" fill="none" xmlns="http://www.w3.org/2000/svg">
<path d="M28.075 9.4625L15.4462 2.64375C15.1675 2.49375 14.8337 2.49375 14.555 2.64375L1.92874 9.4625C1.47374 9.70875 1.30374 10.2775 1.54999 10.7337C1.71874 11.0462 2.04249 11.225 2.37499 11.225C2.52499 11.225 2.67874 11.1875 2.81999 11.1125L3.83874 10.5625L5.87499 24.9537C6.14249 26.4725 7.50999 27.5312 9.19749 27.5312H20.8C22.49 27.5312 23.8562 26.4713 24.1287 24.9225L26.1612 10.56L27.1837 11.1125C27.6387 11.3538 28.2087 11.1875 28.455 10.7325C28.7 10.2788 28.53 9.71 28.075 9.4625V9.4625ZM22.2775 24.6287C22.1437 25.3862 21.3987 25.6562 20.8025 25.6562H9.19999C8.59999 25.6562 7.85624 25.3862 7.72749 24.6587L5.59999 9.6125L15 4.535L24.4025 9.61L22.2775 24.6287V24.6287Z" fill="#0F1419"/>
<path d="M10.275 15.23C10.275 17.835 12.3937 19.955 15 19.955C17.6062 19.955 19.725 17.835 19.725 15.23C19.725 12.625 17.6062 10.505 15 10.505C12.3937 10.505 10.275 12.625 10.275 15.23ZM17.85 15.23C17.85 16.8025 16.5725 18.08 15 18.08C13.4275 18.08 12.15 16.8025 12.15 15.23C12.15 13.6575 13.4275 12.38 15 12.38C16.5725 12.38 17.85 13.6575 17.85 15.23Z" fill="#0F1419"/>
<path d="M62.0234 22V9.33643H58.9526V14.3369H54.3047V9.33643H51.2339V22H54.3047V16.8232H58.9526V22H62.0234ZM68.6382 11.9062C65.6323 11.9062 63.9253 13.9194 63.9253 16.7026V17.3335C63.9253 20.3301 65.623 22.1855 68.6382 22.1855C71.644 22.1855 73.3418 20.3301 73.3418 17.3242V16.6841C73.3418 13.9009 71.644 11.9062 68.6382 11.9062ZM68.6382 14.1328C69.8721 14.1328 70.3267 15.2925 70.3267 16.6562V17.417C70.3267 18.7065 69.8999 19.959 68.6382 19.959C67.3672 19.959 66.9404 18.6973 66.9404 17.417V16.6562C66.9404 15.311 67.3857 14.1328 68.6382 14.1328ZM75.0859 22H78.0547V16.1553C78.0547 14.8657 78.7319 14.3647 79.5391 14.3647C80.3184 14.3647 81.0142 14.8008 81.0142 16.1646V22H83.853V16.1738C83.853 14.9678 84.4375 14.3647 85.3467 14.3647C86.1631 14.3647 86.8032 14.8564 86.8032 16.1089V22H89.7812V15.209C89.7812 13.27 88.6309 11.9434 86.6177 11.9434C84.9292 11.9434 83.9087 12.8804 83.6211 13.7061H83.5005C83.1851 12.667 82.2852 11.9434 80.7729 11.9434C79.1865 11.9434 78.3608 12.8896 78.1196 13.6411H77.9712V12.0918H75.0859V22ZM96.1919 22.1855C99.1328 22.1855 100.413 20.3857 100.562 18.8271H97.8618C97.7412 19.5601 97.0825 19.9961 96.2012 19.9961C95.1807 19.9961 94.4014 19.2446 94.4014 17.9829V17.6489H100.626V16.6562C100.626 13.7339 98.8452 11.9062 96.0806 11.9062C93.4736 11.9062 91.4976 13.5298 91.4976 16.6099V17.3984C91.4976 20.5527 93.4087 22.1855 96.1919 22.1855ZM94.4014 15.9419V15.9326C94.4014 14.8379 95.0879 14.0308 96.1084 14.0308C97.1196 14.0308 97.7783 14.8379 97.7783 15.9326V15.9419H94.4014Z" fill="#0F1419"/>
</svg>
