<svg width="255" height="230" viewBox="0 0 255 230" fill="none" xmlns="http://www.w3.org/2000/svg">
<path d="M38.075 24.4625L25.4462 17.6437C25.1675 17.4937 24.8337 17.4937 24.555 17.6437L11.9287 24.4625C11.4737 24.7088 11.3037 25.2775 11.55 25.7337C11.7187 26.0462 12.0425 26.225 12.375 26.225C12.525 26.225 12.6787 26.1875 12.82 26.1125L13.8387 25.5625L15.875 39.9537C16.1425 41.4725 17.51 42.5312 19.1975 42.5312H30.8C32.49 42.5312 33.8562 41.4713 34.1287 39.9225L36.1612 25.56L37.1837 26.1125C37.6387 26.3538 38.2087 26.1875 38.455 25.7325C38.7 25.2788 38.53 24.71 38.075 24.4625V24.4625ZM32.2775 39.6287C32.1437 40.3862 31.3987 40.6562 30.8025 40.6562H19.2C18.6 40.6562 17.8562 40.3862 17.7275 39.6587L15.6 24.6125L25 19.535L34.4025 24.61L32.2775 39.6287V39.6287Z" fill="white"/>
<path d="M20.275 30.23C20.275 32.835 22.3937 34.955 25 34.955C27.6062 34.955 29.725 32.835 29.725 30.23C29.725 27.625 27.6062 25.505 25 25.505C22.3937 25.505 20.275 27.625 20.275 30.23ZM27.85 30.23C27.85 31.8025 26.5725 33.08 25 33.08C23.4275 33.08 22.15 31.8025 22.15 30.23C22.15 28.6575 23.4275 27.38 25 27.38C26.5725 27.38 27.85 28.6575 27.85 30.23Z" fill="white"/>
<path d="M72.0234 37V24.3364H68.9526V29.3369H64.3047V24.3364H61.2339V37H64.3047V31.8232H68.9526V37H72.0234ZM78.6382 26.9062C75.6323 26.9062 73.9253 28.9194 73.9253 31.7026V32.3335C73.9253 35.3301 75.623 37.1855 78.6382 37.1855C81.644 37.1855 83.3418 35.3301 83.3418 32.3242V31.6841C83.3418 28.9009 81.644 26.9062 78.6382 26.9062ZM78.6382 29.1328C79.8721 29.1328 80.3267 30.2925 80.3267 31.6562V32.417C80.3267 33.7065 79.8999 34.959 78.6382 34.959C77.3672 34.959 76.9404 33.6973 76.9404 32.417V31.6562C76.9404 30.311 77.3857 29.1328 78.6382 29.1328ZM85.0859 37H88.0547V31.1553C88.0547 29.8657 88.7319 29.3647 89.5391 29.3647C90.3184 29.3647 91.0142 29.8008 91.0142 31.1646V37H93.853V31.1738C93.853 29.9678 94.4375 29.3647 95.3467 29.3647C96.1631 29.3647 96.8032 29.8564 96.8032 31.1089V37H99.7812V30.209C99.7812 28.27 98.6309 26.9434 96.6177 26.9434C94.9292 26.9434 93.9087 27.8804 93.6211 28.7061H93.5005C93.1851 27.667 92.2852 26.9434 90.7729 26.9434C89.1865 26.9434 88.3608 27.8896 88.1196 28.6411H87.9712V27.0918H85.0859V37ZM106.192 37.1855C109.133 37.1855 110.413 35.3857 110.562 33.8271H107.862C107.741 34.5601 107.083 34.9961 106.201 34.9961C105.181 34.9961 104.401 34.2446 104.401 32.9829V32.6489H110.626V31.6562C110.626 28.7339 108.845 26.9062 106.081 26.9062C103.474 26.9062 101.498 28.5298 101.498 31.6099V32.3984C101.498 35.5527 103.409 37.1855 106.192 37.1855ZM104.401 30.9419V30.9326C104.401 29.8379 105.088 29.0308 106.108 29.0308C107.12 29.0308 107.778 29.8379 107.778 30.9326V30.9419H104.401Z" fill="white"/>
<path d="M38.075 97.4625L25.4462 90.6437C25.1675 90.4937 24.8337 90.4937 24.555 90.6437L11.9287 97.4625C11.4737 97.7088 11.3037 98.2775 11.55 98.7337C11.7187 99.0462 12.0425 99.225 12.375 99.225C12.525 99.225 12.6787 99.1875 12.82 99.1125L13.8387 98.5625L15.875 112.954C16.1425 114.472 17.51 115.531 19.1975 115.531H30.8C32.49 115.531 33.8562 114.471 34.1287 112.923L36.1612 98.56L37.1837 99.1125C37.6387 99.3538 38.2087 99.1875 38.455 98.7325C38.7 98.2788 38.53 97.71 38.075 97.4625V97.4625ZM32.2775 112.629C32.1437 113.386 31.3987 113.656 30.8025 113.656H19.2C18.6 113.656 17.8562 113.386 17.7275 112.659L15.6 97.6125L25 92.535L34.4025 97.61L32.2775 112.629V112.629Z" fill="#0F1419"/>
<path d="M20.275 103.23C20.275 105.835 22.3937 107.955 25 107.955C27.6062 107.955 29.725 105.835 29.725 103.23C29.725 100.625 27.6062 98.505 25 98.505C22.3937 98.505 20.275 100.625 20.275 103.23ZM27.85 103.23C27.85 104.803 26.5725 106.08 25 106.08C23.4275 106.08 22.15 104.803 22.15 103.23C22.15 101.658 23.4275 100.38 25 100.38C26.5725 100.38 27.85 101.658 27.85 103.23Z" fill="#0F1419"/>
<path d="M72.0234 110V97.3364H68.9526V102.337H64.3047V97.3364H61.2339V110H64.3047V104.823H68.9526V110H72.0234ZM78.6382 99.9062C75.6323 99.9062 73.9253 101.919 73.9253 104.703V105.333C73.9253 108.33 75.623 110.186 78.6382 110.186C81.644 110.186 83.3418 108.33 83.3418 105.324V104.684C83.3418 101.901 81.644 99.9062 78.6382 99.9062ZM78.6382 102.133C79.8721 102.133 80.3267 103.292 80.3267 104.656V105.417C80.3267 106.707 79.8999 107.959 78.6382 107.959C77.3672 107.959 76.9404 106.697 76.9404 105.417V104.656C76.9404 103.311 77.3857 102.133 78.6382 102.133ZM85.0859 110H88.0547V104.155C88.0547 102.866 88.7319 102.365 89.5391 102.365C90.3184 102.365 91.0142 102.801 91.0142 104.165V110H93.853V104.174C93.853 102.968 94.4375 102.365 95.3467 102.365C96.1631 102.365 96.8032 102.856 96.8032 104.109V110H99.7812V103.209C99.7812 101.27 98.6309 99.9434 96.6177 99.9434C94.9292 99.9434 93.9087 100.88 93.6211 101.706H93.5005C93.1851 100.667 92.2852 99.9434 90.7729 99.9434C89.1865 99.9434 88.3608 100.89 88.1196 101.641H87.9712V100.092H85.0859V110ZM106.192 110.186C109.133 110.186 110.413 108.386 110.562 106.827H107.862C107.741 107.56 107.083 107.996 106.201 107.996C105.181 107.996 104.401 107.245 104.401 105.983V105.649H110.626V104.656C110.626 101.734 108.845 99.9062 106.081 99.9062C103.474 99.9062 101.498 101.53 101.498 104.61V105.398C101.498 108.553 103.409 110.186 106.192 110.186ZM104.401 103.942V103.933C104.401 102.838 105.088 102.031 106.108 102.031C107.12 102.031 107.778 102.838 107.778 103.933V103.942H104.401Z" fill="#0F1419"/>
<path d="M38.225 194.188L25.5938 187.371C25.2225 187.171 24.7763 187.171 24.4063 187.371L11.7813 194.188C11.1738 194.518 10.9475 195.275 11.275 195.883C11.5 196.301 11.9313 196.539 12.375 196.539C12.575 196.539 12.78 196.491 12.9688 196.389L13.8863 195.894L15.8738 209.956C16.1438 211.474 17.5113 212.534 19.1988 212.534H30.8013C32.4888 212.534 33.8563 211.474 34.1288 209.924L36.1138 195.893L37.035 196.39C37.6413 196.719 38.4 196.493 38.7275 195.885C39.0563 195.278 38.8275 194.519 38.2225 194.191L38.225 194.188ZM25 204.294C22.7563 204.294 20.9375 202.475 20.9375 200.231C20.9375 197.988 22.7563 196.169 25 196.169C27.2438 196.169 29.0625 197.988 29.0625 200.231C29.0625 202.475 27.2438 204.294 25 204.294Z" fill="#1DA1F2"/>
<path d="M72.0234 207V194.336H68.9526V199.337H64.3047V194.336H61.2339V207H64.3047V201.823H68.9526V207H72.0234ZM78.6382 196.906C75.6323 196.906 73.9253 198.919 73.9253 201.703V202.333C73.9253 205.33 75.623 207.186 78.6382 207.186C81.644 207.186 83.3418 205.33 83.3418 202.324V201.684C83.3418 198.901 81.644 196.906 78.6382 196.906ZM78.6382 199.133C79.8721 199.133 80.3267 200.292 80.3267 201.656V202.417C80.3267 203.707 79.8999 204.959 78.6382 204.959C77.3672 204.959 76.9404 203.697 76.9404 202.417V201.656C76.9404 200.311 77.3857 199.133 78.6382 199.133ZM85.0859 207H88.0547V201.155C88.0547 199.866 88.7319 199.365 89.5391 199.365C90.3184 199.365 91.0142 199.801 91.0142 201.165V207H93.853V201.174C93.853 199.968 94.4375 199.365 95.3467 199.365C96.1631 199.365 96.8032 199.856 96.8032 201.109V207H99.7812V200.209C99.7812 198.27 98.6309 196.943 96.6177 196.943C94.9292 196.943 93.9087 197.88 93.6211 198.706H93.5005C93.1851 197.667 92.2852 196.943 90.7729 196.943C89.1865 196.943 88.3608 197.89 88.1196 198.641H87.9712V197.092H85.0859V207ZM106.192 207.186C109.133 207.186 110.413 205.386 110.562 203.827H107.862C107.741 204.56 107.083 204.996 106.201 204.996C105.181 204.996 104.401 204.245 104.401 202.983V202.649H110.626V201.656C110.626 198.734 108.845 196.906 106.081 196.906C103.474 196.906 101.498 198.53 101.498 201.61V202.398C101.498 205.553 103.409 207.186 106.192 207.186ZM104.401 200.942V200.933C104.401 199.838 105.088 199.031 106.108 199.031C107.12 199.031 107.778 199.838 107.778 200.933V200.942H104.401Z" fill="#1DA1F2"/>
</svg>
